<svg width="16" height="16" viewBox="0 0 16 16" fill="none" xmlns="http://www.w3.org/2000/svg">
<path d="M1 8C1 5.64298 1 4.46447 1.73223 3.73223C2.46447 3 3.64298 3 6 3H10C12.357 3 13.5355 3 14.2678 3.73223C15 4.46447 15 5.64298 15 8C15 10.357 15 11.5355 14.2678 12.2678C13.5355 13 12.357 13 10 13H6C3.64298 13 2.46447 13 1.73223 12.2678C1 11.5355 1 10.357 1 8Z" fill="#505050"/>
<path d="M5.32972 12.4609L3.48678 10.6143L6.57731 7.90867L6.93624 8.75024L2.84253 7.92941L3.4982 5.4824L7.45388 6.81839L6.74131 7.40047L5.42456 3.48629L7.94387 2.80858L8.60984 6.6588L8.16842 6.54053L10.6443 3.53216L12.5063 5.41145L9.39672 8.08437L9.06375 7.24976L13.1575 8.07059L12.4949 10.5434L8.54612 9.18161L9.25178 8.62529L10.6014 12.5207L8.05612 13.1914L7.42302 9.32239L7.86444 9.44067L5.32972 12.4609Z" fill="white"/>
</svg>
